<?xml version="1.0" encoding="UTF-8" standalone="no"?><svg xmlns:dc="http://purl.org/dc/elements/1.1/" xmlns:cc="http://creativecommons.org/ns#" xmlns:rdf="http://www.w3.org/1999/02/22-rdf-syntax-ns#" xmlns:svg="http://www.w3.org/2000/svg" xmlns="http://www.w3.org/2000/svg" width="900" height="300" version="1.0" style="fill:none;stroke:black;stroke-width:2px;"><rect x="1" y="1" width="58" height="58" rx="4" ry="4" title="esc" stroke="#ccc" fill="none" stroke-width="1"/><rect x="3" y="3" width="54" height="48" rx="3" ry="3" title="esc" stroke="#ccc" fill="#ccc" stroke-width="1"/><text x="10" y="20" font-size='11' font-family='Input Mono' stroke-width='0' fill='#000'>ESC</text><text x="10" y="45" font-size='7' font-family='Input Mono' stroke-width='0' fill='#000'>DOCUMENT</text><rect x="61" y="1" width="58" height="58" rx="4" ry="4" title="1" stroke="#ccc" fill="none" stroke-width="1"/><rect x="63" y="3" width="54" height="48" rx="3" ry="3" title="1" stroke="#fff" fill="#fff" stroke-width="1"/><text x="70" y="20" font-size='11' font-family='Input Mono' stroke-width='0' fill='#000'>1</text><rect x="121" y="1" width="58" height="58" rx="4" ry="4" title="2" stroke="#ccc" fill="none" stroke-width="1"/><rect x="123" y="3" width="54" height="48" rx="3" ry="3" title="2" stroke="#fff" fill="#fff" stroke-width="1"/><text x="130" y="20" font-size='11' font-family='Input Mono' stroke-width='0' fill='#000'>2</text><rect x="181" y="1" width="58" height="58" rx="4" ry="4" title="3" stroke="#ccc" fill="none" stroke-width="1"/><rect x="183" y="3" width="54" height="48" rx="3" ry="3" title="3" stroke="#fff" fill="#fff" stroke-width="1"/><text x="190" y="20" font-size='11' font-family='Input Mono' stroke-width='0' fill='#000'>3</text><rect x="241" y="1" width="58" height="58" rx="4" ry="4" title="4" stroke="#ccc" fill="none" stroke-width="1"/><rect x="243" y="3" width="54" height="48" rx="3" ry="3" title="4" stroke="#fff" fill="#fff" stroke-width="1"/><text x="250" y="20" font-size='11' font-family='Input Mono' stroke-width='0' fill='#000'>4</text><rect x="301" y="1" width="58" height="58" rx="4" ry="4" title="5" stroke="#ccc" fill="none" stroke-width="1"/><rect x="303" y="3" width="54" height="48" rx="3" ry="3" title="5" stroke="#fff" fill="#fff" stroke-width="1"/><text x="310" y="20" font-size='11' font-family='Input Mono' stroke-width='0' fill='#000'>5</text><rect x="361" y="1" width="58" height="58" rx="4" ry="4" title="6" stroke="#ccc" fill="none" stroke-width="1"/><rect x="363" y="3" width="54" height="48" rx="3" ry="3" title="6" stroke="#fff" fill="#fff" stroke-width="1"/><text x="370" y="20" font-size='11' font-family='Input Mono' stroke-width='0' fill='#000'>6</text><rect x="421" y="1" width="58" height="58" rx="4" ry="4" title="7" stroke="#ccc" fill="none" stroke-width="1"/><rect x="423" y="3" width="54" height="48" rx="3" ry="3" title="7" stroke="#fff" fill="#fff" stroke-width="1"/><text x="430" y="20" font-size='11' font-family='Input Mono' stroke-width='0' fill='#000'>7</text><rect x="481" y="1" width="58" height="58" rx="4" ry="4" title="8" stroke="#ccc" fill="none" stroke-width="1"/><rect x="483" y="3" width="54" height="48" rx="3" ry="3" title="8" stroke="#fff" fill="#fff" stroke-width="1"/><text x="490" y="20" font-size='11' font-family='Input Mono' stroke-width='0' fill='#000'>8</text><rect x="541" y="1" width="58" height="58" rx="4" ry="4" title="9" stroke="#ccc" fill="none" stroke-width="1"/><rect x="543" y="3" width="54" height="48" rx="3" ry="3" title="9" stroke="#fff" fill="#fff" stroke-width="1"/><text x="550" y="20" font-size='11' font-family='Input Mono' stroke-width='0' fill='#000'>9</text><rect x="601" y="1" width="58" height="58" rx="4" ry="4" title="0" stroke="#ccc" fill="none" stroke-width="1"/><rect x="603" y="3" width="54" height="48" rx="3" ry="3" title="0" stroke="#ccc" fill="#ccc" stroke-width="1"/><text x="610" y="20" font-size='11' font-family='Input Mono' stroke-width='0' fill='#000'>0</text><text x="610" y="45" font-size='7' font-family='Input Mono' stroke-width='0' fill='#000'>RESET ZO</text><rect x="661" y="1" width="58" height="58" rx="4" ry="4" title="-" stroke="#ccc" fill="none" stroke-width="1"/><rect x="663" y="3" width="54" height="48" rx="3" ry="3" title="-" stroke="#ccc" fill="#ccc" stroke-width="1"/><text x="670" y="20" font-size='11' font-family='Input Mono' stroke-width='0' fill='#000'>-</text><text x="670" y="45" font-size='7' font-family='Input Mono' stroke-width='0' fill='#000'>DEC ZOOM</text><rect x="721" y="1" width="58" height="58" rx="4" ry="4" title="plus" stroke="#ccc" fill="none" stroke-width="1"/><rect x="723" y="3" width="54" height="48" rx="3" ry="3" title="plus" stroke="#ccc" fill="#ccc" stroke-width="1"/><text x="730" y="20" font-size='11' font-family='Input Mono' stroke-width='0' fill='#000'>PLUS</text><text x="730" y="45" font-size='7' font-family='Input Mono' stroke-width='0' fill='#000'>INC ZOOM</text><rect x="781" y="1" width="118" height="58" rx="4" ry="4" title="backspace" stroke="#ccc" fill="none" stroke-width="1"/><rect x="783" y="3" width="114" height="48" rx="3" ry="3" title="backspace" stroke="#ccc" fill="#ccc" stroke-width="1"/><text x="790" y="20" font-size='11' font-family='Input Mono' stroke-width='0' fill='#000'>BACKSPACE</text><text x="790" y="45" font-size='7' font-family='Input Mono' stroke-width='0' fill='#000'>RESET</text><rect x="1" y="61" width="88" height="58" rx="4" ry="4" title="tab" stroke="#ccc" fill="none" stroke-width="1"/><rect x="3" y="63" width="84" height="48" rx="3" ry="3" title="tab" stroke="#000" fill="#000" stroke-width="1"/><text x="10" y="80" font-size='11' font-family='Input Mono' stroke-width='0' fill='#fff'>TAB</text><text x="10" y="95" font-size='7' font-family='Input Mono' stroke-width='0' fill='#fff'>SELECT A</text><rect x="91" y="61" width="58" height="58" rx="4" ry="4" title="q" stroke="#ccc" fill="none" stroke-width="1"/><rect x="93" y="63" width="54" height="48" rx="3" ry="3" title="q" stroke="#ccc" fill="#ccc" stroke-width="1"/><text x="100" y="80" font-size='11' font-family='Input Mono' stroke-width='0' fill='#000'>Q</text><text x="100" y="105" font-size='7' font-family='Input Mono' stroke-width='0' fill='#000'>QUIT</text><rect x="151" y="61" width="58" height="58" rx="4" ry="4" title="w" stroke="#ccc" fill="none" stroke-width="1"/><rect x="153" y="63" width="54" height="48" rx="3" ry="3" title="w" stroke="#ccc" fill="#ccc" stroke-width="1"/><text x="160" y="80" font-size='11' font-family='Input Mono' stroke-width='0' fill='#000'>W</text><text x="160" y="105" font-size='7' font-family='Input Mono' stroke-width='0' fill='#000'>CLOSE FI</text><rect x="211" y="61" width="58" height="58" rx="4" ry="4" title="e" stroke="#ccc" fill="none" stroke-width="1"/><rect x="213" y="63" width="54" height="48" rx="3" ry="3" title="e" stroke="#fff" fill="#fff" stroke-width="1"/><text x="220" y="80" font-size='11' font-family='Input Mono' stroke-width='0' fill='#000'>E</text><rect x="271" y="61" width="58" height="58" rx="4" ry="4" title="r" stroke="#ccc" fill="none" stroke-width="1"/><rect x="273" y="63" width="54" height="48" rx="3" ry="3" title="r" stroke="#fff" fill="#fff" stroke-width="1"/><text x="280" y="80" font-size='11' font-family='Input Mono' stroke-width='0' fill='#000'>R</text><rect x="331" y="61" width="58" height="58" rx="4" ry="4" title="t" stroke="#ccc" fill="none" stroke-width="1"/><rect x="333" y="63" width="54" height="48" rx="3" ry="3" title="t" stroke="#fff" fill="#fff" stroke-width="1"/><text x="340" y="80" font-size='11' font-family='Input Mono' stroke-width='0' fill='#000'>T</text><rect x="391" y="61" width="58" height="58" rx="4" ry="4" title="y" stroke="#ccc" fill="none" stroke-width="1"/><rect x="393" y="63" width="54" height="48" rx="3" ry="3" title="y" stroke="#fff" fill="#fff" stroke-width="1"/><text x="400" y="80" font-size='11' font-family='Input Mono' stroke-width='0' fill='#000'>Y</text><rect x="451" y="61" width="58" height="58" rx="4" ry="4" title="u" stroke="#ccc" fill="none" stroke-width="1"/><rect x="453" y="63" width="54" height="48" rx="3" ry="3" title="u" stroke="#fff" fill="#fff" stroke-width="1"/><text x="460" y="80" font-size='11' font-family='Input Mono' stroke-width='0' fill='#000'>U</text><rect x="511" y="61" width="58" height="58" rx="4" ry="4" title="i" stroke="#ccc" fill="none" stroke-width="1"/><rect x="513" y="63" width="54" height="48" rx="3" ry="3" title="i" stroke="#fff" fill="#fff" stroke-width="1"/><text x="520" y="80" font-size='11' font-family='Input Mono' stroke-width='0' fill='#000'>I</text><rect x="571" y="61" width="58" height="58" rx="4" ry="4" title="o" stroke="#ccc" fill="none" stroke-width="1"/><rect x="573" y="63" width="54" height="48" rx="3" ry="3" title="o" stroke="#ccc" fill="#ccc" stroke-width="1"/><text x="580" y="80" font-size='11' font-family='Input Mono' stroke-width='0' fill='#000'>O</text><text x="580" y="105" font-size='7' font-family='Input Mono' stroke-width='0' fill='#000'>OPEN</text><rect x="631" y="61" width="58" height="58" rx="4" ry="4" title="p" stroke="#ccc" fill="none" stroke-width="1"/><rect x="633" y="63" width="54" height="48" rx="3" ry="3" title="p" stroke="#fff" fill="#fff" stroke-width="1"/><text x="640" y="80" font-size='11' font-family='Input Mono' stroke-width='0' fill='#000'>P</text><rect x="691" y="61" width="58" height="58" rx="4" ry="4" title="[" stroke="#ccc" fill="none" stroke-width="1"/><rect x="693" y="63" width="54" height="48" rx="3" ry="3" title="[" stroke="#ccc" fill="#ccc" stroke-width="1"/><text x="700" y="80" font-size='11' font-family='Input Mono' stroke-width='0' fill='#000'>[</text><text x="700" y="105" font-size='7' font-family='Input Mono' stroke-width='0' fill='#000'>PREV MAR</text><rect x="751" y="61" width="58" height="58" rx="4" ry="4" title="]" stroke="#ccc" fill="none" stroke-width="1"/><rect x="753" y="63" width="54" height="48" rx="3" ry="3" title="]" stroke="#ccc" fill="#ccc" stroke-width="1"/><text x="760" y="80" font-size='11' font-family='Input Mono' stroke-width='0' fill='#000'>]</text><text x="760" y="105" font-size='7' font-family='Input Mono' stroke-width='0' fill='#000'>NEXT MAR</text><rect x="811" y="61" width="88" height="58" rx="4" ry="4" title="|" stroke="#ccc" fill="none" stroke-width="1"/><rect x="813" y="63" width="84" height="48" rx="3" ry="3" title="|" stroke="#fff" fill="#fff" stroke-width="1"/><text x="820" y="80" font-size='11' font-family='Input Mono' stroke-width='0' fill='#000'>|</text><rect x="1" y="121" width="103" height="58" rx="4" ry="4" title="caps" stroke="#ccc" fill="none" stroke-width="1"/><rect x="3" y="123" width="99" height="48" rx="3" ry="3" title="caps" stroke="#fff" fill="#fff" stroke-width="1"/><text x="10" y="140" font-size='11' font-family='Input Mono' stroke-width='0' fill='#000'>CAPS</text><rect x="106" y="121" width="58" height="58" rx="4" ry="4" title="a" stroke="#ccc" fill="none" stroke-width="1"/><rect x="108" y="123" width="54" height="48" rx="3" ry="3" title="a" stroke="#fff" fill="#fff" stroke-width="1"/><text x="115" y="140" font-size='11' font-family='Input Mono' stroke-width='0' fill='#000'>A</text><rect x="166" y="121" width="58" height="58" rx="4" ry="4" title="s" stroke="#ccc" fill="none" stroke-width="1"/><rect x="168" y="123" width="54" height="48" rx="3" ry="3" title="s" stroke="#ccc" fill="#ccc" stroke-width="1"/><text x="175" y="140" font-size='11' font-family='Input Mono' stroke-width='0' fill='#000'>S</text><text x="175" y="165" font-size='7' font-family='Input Mono' stroke-width='0' fill='#000'>SAVE</text><rect x="226" y="121" width="58" height="58" rx="4" ry="4" title="d" stroke="#ccc" fill="none" stroke-width="1"/><rect x="228" y="123" width="54" height="48" rx="3" ry="3" title="d" stroke="#ccc" fill="#ccc" stroke-width="1"/><text x="235" y="140" font-size='11' font-family='Input Mono' stroke-width='0' fill='#000'>D</text><text x="235" y="165" font-size='7' font-family='Input Mono' stroke-width='0' fill='#000'>DISCARD</text><rect x="286" y="121" width="58" height="58" rx="4" ry="4" title="f" stroke="#ccc" fill="none" stroke-width="1"/><rect x="288" y="123" width="54" height="48" rx="3" ry="3" title="f" stroke="#ccc" fill="#ccc" stroke-width="1"/><text x="295" y="140" font-size='11' font-family='Input Mono' stroke-width='0' fill='#000'>F</text><text x="295" y="165" font-size='7' font-family='Input Mono' stroke-width='0' fill='#000'>OPERATOR</text><rect x="346" y="121" width="58" height="58" rx="4" ry="4" title="g" stroke="#ccc" fill="none" stroke-width="1"/><rect x="348" y="123" width="54" height="48" rx="3" ry="3" title="g" stroke="#fff" fill="#fff" stroke-width="1"/><text x="355" y="140" font-size='11' font-family='Input Mono' stroke-width='0' fill='#000'>G</text><rect x="406" y="121" width="58" height="58" rx="4" ry="4" title="h" stroke="#ccc" fill="none" stroke-width="1"/><rect x="408" y="123" width="54" height="48" rx="3" ry="3" title="h" stroke="#ccc" fill="#ccc" stroke-width="1"/><text x="415" y="140" font-size='11' font-family='Input Mono' stroke-width='0' fill='#000'>H</text><text x="415" y="165" font-size='7' font-family='Input Mono' stroke-width='0' fill='#000'>HIDE</text><rect x="466" y="121" width="58" height="58" rx="4" ry="4" title="j" stroke="#ccc" fill="none" stroke-width="1"/><rect x="468" y="123" width="54" height="48" rx="3" ry="3" title="j" stroke="#fff" fill="#fff" stroke-width="1"/><text x="475" y="140" font-size='11' font-family='Input Mono' stroke-width='0' fill='#000'>J</text><rect x="526" y="121" width="58" height="58" rx="4" ry="4" title="k" stroke="#ccc" fill="none" stroke-width="1"/><rect x="528" y="123" width="54" height="48" rx="3" ry="3" title="k" stroke="#ccc" fill="#ccc" stroke-width="1"/><text x="535" y="140" font-size='11' font-family='Input Mono' stroke-width='0' fill='#000'>K</text><text x="535" y="165" font-size='7' font-family='Input Mono' stroke-width='0' fill='#000'>READER</text><rect x="586" y="121" width="58" height="58" rx="4" ry="4" title="l" stroke="#ccc" fill="none" stroke-width="1"/><rect x="588" y="123" width="54" height="48" rx="3" ry="3" title="l" stroke="#fff" fill="#fff" stroke-width="1"/><text x="595" y="140" font-size='11' font-family='Input Mono' stroke-width='0' fill='#000'>L</text><rect x="646" y="121" width="58" height="58" rx="4" ry="4" title=";" stroke="#ccc" fill="none" stroke-width="1"/><rect x="648" y="123" width="54" height="48" rx="3" ry="3" title=";" stroke="#fff" fill="#fff" stroke-width="1"/><text x="655" y="140" font-size='11' font-family='Input Mono' stroke-width='0' fill='#000'>;</text><rect x="706" y="121" width="58" height="58" rx="4" ry="4" title="'" stroke="#ccc" fill="none" stroke-width="1"/><rect x="708" y="123" width="54" height="48" rx="3" ry="3" title="'" stroke="#fff" fill="#fff" stroke-width="1"/><text x="715" y="140" font-size='11' font-family='Input Mono' stroke-width='0' fill='#000'>'</text><rect x="766" y="121" width="133" height="58" rx="4" ry="4" title="enter" stroke="#ccc" fill="none" stroke-width="1"/><rect x="768" y="123" width="129" height="48" rx="3" ry="3" title="enter" stroke="#ccc" fill="#ccc" stroke-width="1"/><text x="775" y="140" font-size='11' font-family='Input Mono' stroke-width='0' fill='#000'>ENTER</text><text x="775" y="165" font-size='7' font-family='Input Mono' stroke-width='0' fill='#000'>FULLSCRE</text><rect x="1" y="181" width="133" height="58" rx="4" ry="4" title="shift" stroke="#ccc" fill="none" stroke-width="1"/><rect x="3" y="183" width="129" height="48" rx="3" ry="3" title="shift" stroke="#fff" fill="#fff" stroke-width="1"/><text x="10" y="200" font-size='11' font-family='Input Mono' stroke-width='0' fill='#000'>SHIFT</text><rect x="136" y="181" width="58" height="58" rx="4" ry="4" title="z" stroke="#ccc" fill="none" stroke-width="1"/><rect x="138" y="183" width="54" height="48" rx="3" ry="3" title="z" stroke="#fff" fill="#fff" stroke-width="1"/><text x="145" y="200" font-size='11' font-family='Input Mono' stroke-width='0' fill='#000'>Z</text><rect x="196" y="181" width="58" height="58" rx="4" ry="4" title="x" stroke="#ccc" fill="none" stroke-width="1"/><rect x="198" y="183" width="54" height="48" rx="3" ry="3" title="x" stroke="#fff" fill="#fff" stroke-width="1"/><text x="205" y="200" font-size='11' font-family='Input Mono' stroke-width='0' fill='#000'>X</text><rect x="256" y="181" width="58" height="58" rx="4" ry="4" title="c" stroke="#ccc" fill="none" stroke-width="1"/><rect x="258" y="183" width="54" height="48" rx="3" ry="3" title="c" stroke="#fff" fill="#fff" stroke-width="1"/><text x="265" y="200" font-size='11' font-family='Input Mono' stroke-width='0' fill='#000'>C</text><rect x="316" y="181" width="58" height="58" rx="4" ry="4" title="v" stroke="#ccc" fill="none" stroke-width="1"/><rect x="318" y="183" width="54" height="48" rx="3" ry="3" title="v" stroke="#fff" fill="#fff" stroke-width="1"/><text x="325" y="200" font-size='11' font-family='Input Mono' stroke-width='0' fill='#000'>V</text><rect x="376" y="181" width="58" height="58" rx="4" ry="4" title="b" stroke="#ccc" fill="none" stroke-width="1"/><rect x="378" y="183" width="54" height="48" rx="3" ry="3" title="b" stroke="#fff" fill="#fff" stroke-width="1"/><text x="385" y="200" font-size='11' font-family='Input Mono' stroke-width='0' fill='#000'>B</text><rect x="436" y="181" width="58" height="58" rx="4" ry="4" title="n" stroke="#ccc" fill="none" stroke-width="1"/><rect x="438" y="183" width="54" height="48" rx="3" ry="3" title="n" stroke="#ccc" fill="#ccc" stroke-width="1"/><text x="445" y="200" font-size='11' font-family='Input Mono' stroke-width='0' fill='#000'>N</text><text x="445" y="225" font-size='7' font-family='Input Mono' stroke-width='0' fill='#000'>NEW</text><rect x="496" y="181" width="58" height="58" rx="4" ry="4" title="m" stroke="#ccc" fill="none" stroke-width="1"/><rect x="498" y="183" width="54" height="48" rx="3" ry="3" title="m" stroke="#fff" fill="#fff" stroke-width="1"/><text x="505" y="200" font-size='11' font-family='Input Mono' stroke-width='0' fill='#000'>M</text><rect x="556" y="181" width="58" height="58" rx="4" ry="4" title="," stroke="#ccc" fill="none" stroke-width="1"/><rect x="558" y="183" width="54" height="48" rx="3" ry="3" title="," stroke="#ccc" fill="#ccc" stroke-width="1"/><text x="565" y="200" font-size='11' font-family='Input Mono' stroke-width='0' fill='#000'>,</text><text x="565" y="225" font-size='7' font-family='Input Mono' stroke-width='0' fill='#000'>ABOUT</text><rect x="616" y="181" width="58" height="58" rx="4" ry="4" title="." stroke="#ccc" fill="none" stroke-width="1"/><rect x="618" y="183" width="54" height="48" rx="3" ry="3" title="." stroke="#ccc" fill="#ccc" stroke-width="1"/><text x="625" y="200" font-size='11' font-family='Input Mono' stroke-width='0' fill='#000'>.</text><text x="625" y="225" font-size='7' font-family='Input Mono' stroke-width='0' fill='#000'>INSPECT</text><rect x="676" y="181" width="58" height="58" rx="4" ry="4" title="/" stroke="#ccc" fill="none" stroke-width="1"/><rect x="678" y="183" width="54" height="48" rx="3" ry="3" title="/" stroke="#fff" fill="#fff" stroke-width="1"/><text x="685" y="200" font-size='11' font-family='Input Mono' stroke-width='0' fill='#000'>/</text><rect x="736" y="181" width="163" height="58" rx="4" ry="4" title="capslock" stroke="#ccc" fill="none" stroke-width="1"/><rect x="738" y="183" width="159" height="48" rx="3" ry="3" title="capslock" stroke="#fff" fill="#fff" stroke-width="1"/><text x="745" y="200" font-size='11' font-family='Input Mono' stroke-width='0' fill='#000'>CAPSLOCK</text><rect x="1" y="241" width="88" height="58" rx="4" ry="4" title="ctrl" stroke="#ccc" fill="none" stroke-width="1"/><rect x="3" y="243" width="84" height="48" rx="3" ry="3" title="ctrl" stroke="#fff" fill="#fff" stroke-width="1"/><text x="10" y="260" font-size='11' font-family='Input Mono' stroke-width='0' fill='#000'>CTRL</text><rect x="91" y="241" width="88" height="58" rx="4" ry="4" title="cmd" stroke="#ccc" fill="none" stroke-width="1"/><rect x="93" y="243" width="84" height="48" rx="3" ry="3" title="cmd" stroke="#fff" fill="#fff" stroke-width="1"/><text x="100" y="260" font-size='11' font-family='Input Mono' stroke-width='0' fill='#000'>CMD</text><rect x="181" y="241" width="88" height="58" rx="4" ry="4" title="alt" stroke="#ccc" fill="none" stroke-width="1"/><rect x="183" y="243" width="84" height="48" rx="3" ry="3" title="alt" stroke="#fff" fill="#fff" stroke-width="1"/><text x="190" y="260" font-size='11' font-family='Input Mono' stroke-width='0' fill='#000'>ALT</text><rect x="271" y="241" width="268" height="58" rx="4" ry="4" title="space" stroke="#ccc" fill="none" stroke-width="1"/><rect x="273" y="243" width="264" height="48" rx="3" ry="3" title="space" stroke="#fff" fill="#fff" stroke-width="1"/><text x="280" y="260" font-size='11' font-family='Input Mono' stroke-width='0' fill='#000'>SPACE</text><rect x="811" y="241" width="88" height="58" rx="4" ry="4" title="ctrl" stroke="#ccc" fill="none" stroke-width="1"/><rect x="813" y="243" width="84" height="48" rx="3" ry="3" title="ctrl" stroke="#fff" fill="#fff" stroke-width="1"/><text x="820" y="260" font-size='11' font-family='Input Mono' stroke-width='0' fill='#000'>CTRL</text><rect x="721" y="241" width="88" height="58" rx="4" ry="4" title="pn" stroke="#ccc" fill="none" stroke-width="1"/><rect x="723" y="243" width="84" height="48" rx="3" ry="3" title="pn" stroke="#fff" fill="#fff" stroke-width="1"/><text x="730" y="260" font-size='11' font-family='Input Mono' stroke-width='0' fill='#000'>PN</text><rect x="631" y="241" width="88" height="58" rx="4" ry="4" title="fn" stroke="#ccc" fill="none" stroke-width="1"/><rect x="633" y="243" width="84" height="48" rx="3" ry="3" title="fn" stroke="#fff" fill="#fff" stroke-width="1"/><text x="640" y="260" font-size='11' font-family='Input Mono' stroke-width='0' fill='#000'>FN</text><rect x="541" y="241" width="88" height="58" rx="4" ry="4" title="alt" stroke="#ccc" fill="none" stroke-width="1"/><rect x="543" y="243" width="84" height="48" rx="3" ry="3" title="alt" stroke="#fff" fill="#fff" stroke-width="1"/><text x="550" y="260" font-size='11' font-family='Input Mono' stroke-width='0' fill='#000'>ALT</text></svg>